<svg xmlns="http://www.w3.org/2000/svg" xmlns:xlink="http://www.w3.org/1999/xlink" id="terminal" baseProfile="full" viewBox="0 0 703 404" width="703" version="1.1">
    <defs>
        <termtosvg:template_settings xmlns:termtosvg="https://github.com/nbedos/termtosvg">
            <termtosvg:screen_geometry columns="82" rows="19"/>
            <termtosvg:animation type="css"/>
        </termtosvg:template_settings>
        <style type="text/css" id="generated-style"><![CDATA[#screen {
                font-family: 'DejaVu Sans Mono', monospace;
                font-style: normal;
                font-size: 14px;
            }

        text {
            dominant-baseline: text-before-edge;
            white-space: pre;
        }
    
            :root {
                --animation-duration: 20553ms;
            }

            @keyframes roll {
                0.000%{transform:translateY(0px)}
0.389%{transform:translateY(-340px)}
0.399%{transform:translateY(-680px)}
1.192%{transform:translateY(-1020px)}
5.410%{transform:translateY(-1360px)}
7.376%{transform:translateY(-1700px)}
8.062%{transform:translateY(-2040px)}
8.850%{transform:translateY(-2380px)}
9.755%{transform:translateY(-2720px)}
9.979%{transform:translateY(-3060px)}
10.612%{transform:translateY(-3400px)}
11.356%{transform:translateY(-3740px)}
12.188%{transform:translateY(-4080px)}
14.626%{transform:translateY(-4420px)}
16.226%{transform:translateY(-4760px)}
17.608%{transform:translateY(-5100px)}
17.618%{transform:translateY(-5440px)}
17.623%{transform:translateY(-5780px)}
20.294%{transform:translateY(-6120px)}
26.697%{transform:translateY(-6460px)}
27.091%{transform:translateY(-6800px)}
27.115%{transform:translateY(-7140px)}
27.728%{transform:translateY(-7480px)}
27.748%{transform:translateY(-7820px)}
32.200%{transform:translateY(-8160px)}
34.379%{transform:translateY(-8500px)}
35.027%{transform:translateY(-8840px)}
36.710%{transform:translateY(-9180px)}
37.552%{transform:translateY(-9520px)}
37.688%{transform:translateY(-9860px)}
38.184%{transform:translateY(-10200px)}
38.924%{transform:translateY(-10540px)}
39.542%{transform:translateY(-10880px)}
42.344%{transform:translateY(-11220px)}
43.998%{transform:translateY(-11560px)}
45.040%{transform:translateY(-11900px)}
46.310%{transform:translateY(-12240px)}
49.044%{transform:translateY(-12580px)}
49.068%{transform:translateY(-12920px)}
49.093%{transform:translateY(-13260px)}
51.730%{transform:translateY(-13600px)}
51.754%{transform:translateY(-13940px)}
58.381%{transform:translateY(-14280px)}
77.726%{transform:translateY(-14620px)}
77.760%{transform:translateY(-14960px)}
78.986%{transform:translateY(-15300px)}
79.049%{transform:translateY(-15640px)}
80.767%{transform:translateY(-15980px)}
80.830%{transform:translateY(-16320px)}
80.859%{transform:translateY(-16660px)}
81.268%{transform:translateY(-17000px)}
81.326%{transform:translateY(-17340px)}
81.944%{transform:translateY(-17680px)}
81.973%{transform:translateY(-18020px)}
86.221%{transform:translateY(-18360px)}
86.566%{transform:translateY(-18700px)}
87.763%{transform:translateY(-19040px)}
87.812%{transform:translateY(-19380px)}
87.846%{transform:translateY(-19720px)}
88.420%{transform:translateY(-20060px)}
88.449%{transform:translateY(-20400px)}
95.135%{transform:translateY(-20740px)}
100.000%{transform:translateY(-20740px)}
            }

            #screen_view {
                animation-duration: 20553ms;
                animation-iteration-count:infinite;
                animation-name:roll;
                animation-timing-function: steps(1,end);
                animation-fill-mode: forwards;
            }
        ]]></style>
        <style type="text/css" id="user-style">
            /* gjm8 color theme (source: https://terminal.sexy/) */
            .foreground {fill: #f8f8f2}
            .background {fill: #272822}
            .color0 {fill: #272822}
            .color1 {fill: #f92672}
            .color2 {fill: #a6e22e}
            .color3 {fill: #f4bf75}
            .color4 {fill: #66d9ef}
            .color5 {fill: #ae81ff}
            .color6 {fill: #a1efe4}
            .color7 {fill: #f8f8f2}
            .color8 {fill: #75715e}
            .color9 {fill: #fd971f}
            .color10 {fill: #383830}
            .color11 {fill: #49483e}
            .color12 {fill: #a59f85}
            .color13 {fill: #f5f4f1}
            .color14 {fill: #cc6633}
            .color15 {fill: #f9f8f5}
        </style>
    </defs>
    <rect id="terminalui" class="background" width="100%" height="100%" ry="4.5826941"/>
    <circle cx="24" cy="23" r="7" class="color1"/>
    <circle cx="44" cy="23" r="7" class="color3"/>
    <circle cx="64" cy="23" r="7" class="color2"/>
    <svg id="screen" width="656" height="323" x="23" y="50" viewBox="0 0 656 323" preserveAspectRatio="xMidYMin slice">
        <rect class="background" height="100%" width="100%" x="0" y="0"/><defs><g id="g1"><text class="background" textLength="8" x="0"> </text></g><g id="g2"><text class="background" textLength="8" x="0"> </text><text class="foreground" textLength="648" x="8">                                                                                 </text></g><g id="g3"><text class="foreground" textLength="656" x="0">                                                                                  </text></g><g id="g4"><text class="color12" font-weight="bold" textLength="48" x="0">~/demo</text><text class="foreground" textLength="24" x="48">   </text><text class="color7" textLength="16" x="632">  </text></g><g id="g5"><text class="color7" textLength="16" x="0">&#9654; </text><text class="background" textLength="8" x="16"> </text><text class="color7" textLength="632" x="24">                                                                               </text></g><g id="g6"><text class="color7" textLength="16" x="0">&#9654; </text><text class="color9" font-weight="bold" textLength="8" x="16">s</text><text class="background" textLength="8" x="24"> </text><text class="color7" textLength="624" x="32">                                                                              </text></g><g id="g7"><text class="color7" textLength="16" x="0">&#9654; </text><text class="color9" font-weight="bold" textLength="16" x="16">sc</text><text class="background" textLength="8" x="32"> </text><text class="color7" textLength="616" x="40">                                                                             </text></g><g id="g8"><text class="color7" textLength="16" x="0">&#9654; </text><text class="color9" font-weight="bold" textLength="24" x="16">sci</text><text class="background" textLength="8" x="40"> </text><text class="color7" textLength="608" x="48">                                                                            </text></g><g id="g9"><text class="color7" textLength="16" x="0">&#9654; </text><text class="color9" font-weight="bold" textLength="32" x="16">scid</text><text class="background" textLength="8" x="48"> </text><text class="color7" textLength="600" x="56">                                                                           </text></g><g id="g10"><text class="color7" textLength="16" x="0">&#9654; </text><text class="color9" font-weight="bold" textLength="40" x="16">scido</text><text class="background" textLength="8" x="56"> </text><text class="color7" textLength="592" x="64">                                                                          </text></g><g id="g11"><text class="color7" textLength="16" x="0">&#9654; </text><text class="color9" font-weight="bold" textLength="48" x="16">scidow</text><text class="background" textLength="8" x="64"> </text><text class="color7" textLength="584" x="72">                                                                         </text></g><g id="g12"><text class="color7" textLength="16" x="0">&#9654; </text><text class="color9" font-weight="bold" textLength="56" x="16">scidown</text><text class="background" textLength="8" x="72"> </text><text class="color7" textLength="576" x="80">                                                                        </text></g><g id="g13"><text class="color7" textLength="16" x="0">&#9654; </text><text class="color2" textLength="64" x="16">scidownl</text><text class="background" textLength="8" x="80"> </text><text class="color7" textLength="568" x="88">                                                                       </text></g><g id="g14"><text class="color7" textLength="16" x="0">&#9654; </text><text class="color2" textLength="64" x="16">scidownl</text><text class="foreground" textLength="8" x="80"> </text><text class="background" textLength="8" x="88"> </text><text class="color7" textLength="560" x="96">                                                                      </text></g><g id="g15"><text class="color7" textLength="16" x="0">&#9654; </text><text class="color2" textLength="64" x="16">scidownl</text><text class="foreground" textLength="16" x="80"> -</text><text class="background" textLength="8" x="96"> </text><text class="color7" textLength="552" x="104">                                                                     </text></g><g id="g16"><text class="color7" textLength="16" x="0">&#9654; </text><text class="color2" textLength="64" x="16">scidownl</text><text class="foreground" textLength="24" x="80"> -u</text><text class="background" textLength="8" x="104"> </text><text class="color7" textLength="544" x="112">                                                                    </text></g><g id="g17"><text class="color7" textLength="16" x="0">&#9654; </text><text class="color2" textLength="64" x="16">scidownl</text><text class="foreground" textLength="24" x="80"> -u</text><text class="color7" textLength="552" x="104">                                                                     </text></g><g id="g18"><text class="color2" textLength="56" x="0">[INFO] </text><text class="foreground" textLength="144" x="56">Updating links ...</text></g><g id="g19"><text class="color2" textLength="56" x="0">[INFO] </text><text class="foreground" textLength="152" x="56">https://sci-hub.ren</text></g><g id="g20"><text class="color2" textLength="56" x="0">[INFO] </text><text class="foreground" textLength="144" x="56">http://sci-hub.ren</text></g><g id="g21"><text class="color2" textLength="56" x="0">[INFO] </text><text class="foreground" textLength="144" x="56">https://sci-hub.tw</text></g><g id="g22"><text class="color2" textLength="56" x="0">[INFO] </text><text class="foreground" textLength="144" x="56">http://sci-hub.red</text></g><g id="g23"><text class="color2" textLength="56" x="0">[INFO] </text><text class="foreground" textLength="144" x="56">https://sci-hub.se</text></g><g id="g24"><text class="color2" textLength="56" x="0">[INFO] </text><text class="foreground" textLength="136" x="56">http://sci-hub.se</text></g><g id="g25"><text class="color2" textLength="56" x="0">[INFO] </text><text class="foreground" textLength="136" x="56">http://sci-hub.tw</text></g><g id="g26"><text class="color7" textLength="16" x="0">&#9654; </text><text class="color2" textLength="64" x="16">scidownl</text><text class="foreground" textLength="24" x="80"> -D</text><text class="background" textLength="8" x="104"> </text><text class="color7" textLength="544" x="112">                                                                    </text></g><g id="g27"><text class="color7" textLength="16" x="0">&#9654; </text><text class="color2" textLength="64" x="16">scidownl</text><text class="foreground" textLength="32" x="80"> -D </text><text class="background" textLength="8" x="112"> </text><text class="color7" textLength="536" x="120">                                                                   </text></g><g id="g28"><text class="color7" textLength="16" x="0">&#9654; </text><text class="color2" textLength="64" x="16">scidownl</text><text class="foreground" textLength="416" x="80"> -D https://doi.org/10.1097/00010694-198309000-00012</text><text class="background" textLength="8" x="496"> </text><text class="color7" textLength="152" x="504">                   </text></g><g id="g29"><text class="color7" textLength="16" x="0">&#9654; </text><text class="color2" textLength="64" x="16">scidownl</text><text class="foreground" textLength="416" x="80"> -D https://doi.org/10.1097/00010694-198309000-00012</text><text class="color7" textLength="160" x="496">                    </text></g><g id="g30"><text class="color2" textLength="56" x="0">[INFO] </text><text class="foreground" textLength="288" x="56">Reading available links of Scihub...</text></g><g id="g31"><text class="color2" textLength="56" x="0">[INFO] </text><text class="foreground" textLength="352" x="56">Successfully read available links of Scihub.</text></g><g id="g32"><text class="color2" textLength="56" x="0">[INFO] </text><text class="foreground" textLength="384" x="56">Choose the available link 0: https://sci-hub.ren</text></g><g id="g33"><text class="color2" textLength="56" x="0">[INFO] </text><text class="foreground" font-weight="bold" textLength="56" x="56">PDF url</text><text class="foreground" textLength="32" x="112"> -&gt; </text></g><g id="g34"><text class="foreground" textLength="592" x="64">https://twin.sci-hub.tw/5707/8a71e31f307585b038635b05a31d1749/10.1097@0001</text></g><g id="g35"><text class="foreground" textLength="192" x="0">0694-198309000-00012.pdf</text></g><g id="g36"><text class="color2" textLength="56" x="0">[INFO] </text><text class="foreground" font-weight="bold" textLength="104" x="56">Article title</text><text class="foreground" textLength="32" x="160"> -&gt; </text></g><g id="g37"><text class="foreground" textLength="344" x="64">Soil Degradation. Soil Science, 136(3), 195</text></g><g id="g38"><text class="color2" textLength="56" x="0">[INFO] </text><text class="foreground" textLength="96" x="56">Verifying...</text></g><g id="g39"><text class="color2" textLength="56" x="0">[INFO] </text><text class="foreground" textLength="168" x="56">Verification success.</text></g><g id="g40"><text class="color2" textLength="56" x="0">[ 20%] </text><text class="foreground" textLength="168" x="56">Progress: 16KB / 79KB</text><text class="background" textLength="8" x="224"> </text></g><g id="g41"><text class="color2" textLength="56" x="0">[ 21%] </text><text class="foreground" textLength="168" x="56">Progress: 17KB / 79KB</text><text class="background" textLength="8" x="224"> </text></g><g id="g42"><text class="color2" textLength="56" x="0">[ 41%] </text><text class="foreground" textLength="168" x="56">Progress: 32KB / 79KB</text><text class="background" textLength="8" x="224"> </text></g><g id="g43"><text class="color2" textLength="56" x="0">[ 42%] </text><text class="foreground" textLength="168" x="56">Progress: 33KB / 79KB</text><text class="background" textLength="8" x="224"> </text></g><g id="g44"><text class="color2" textLength="56" x="0">[ 78%] </text><text class="foreground" textLength="152" x="56">Progress: 62KB / 79</text><text class="background" textLength="8" x="208">K</text><text class="foreground" textLength="8" x="216">B</text></g><g id="g45"><text class="color2" textLength="56" x="0">[108%] </text><text class="foreground" textLength="168" x="56">Progress: 86KB / 79KB</text></g><g id="g46"><text class="color2" textLength="56" x="0">[INFO] </text><text class="foreground" textLength="400" x="56">Done.                                             </text></g><g id="g47"><text class="color7" textLength="16" x="0">&#9654; </text><text class="color9" font-weight="bold" textLength="8" x="16">L</text><text class="background" textLength="8" x="24"> </text><text class="color7" textLength="624" x="32">                                                                              </text></g><g id="g48"><text class="color7" textLength="16" x="0">&#9654; </text><text class="color2" textLength="16" x="16">LS</text><text class="background" textLength="8" x="32"> </text><text class="color7" textLength="616" x="40">                                                                             </text></g><g id="g49"><text class="color7" textLength="16" x="0">&#9654; </text><text class="color2" textLength="16" x="16">LS</text><text class="color7" textLength="624" x="32">                                                                              </text></g><g id="g50"><text class="foreground" textLength="376" x="0">Soil Degradation. Soil Science, 136(3), 195.pdf</text></g><g id="g51"><text class="color7" textLength="656" x="0">&#9654;                                                                                 </text></g></defs><g id="screen_view"><g><rect class="foreground" height="17" width="8" x="0" y="0"/><use y="0" xlink:href="#g1"/></g><g><rect class="foreground" height="17" width="8" x="0" y="340"/><use y="340" xlink:href="#g2"/></g><g><rect class="foreground" height="17" width="8" x="0" y="680"/><use y="680" xlink:href="#g2"/></g><g><use y="1020" xlink:href="#g3"/><use y="1037" xlink:href="#g4"/><rect class="foreground" height="17" width="8" x="16" y="1054"/><use y="1054" xlink:href="#g5"/></g><g><use y="1360" xlink:href="#g3"/><use y="1377" xlink:href="#g4"/><rect class="foreground" height="17" width="8" x="24" y="1394"/><use y="1394" xlink:href="#g6"/></g><g><use y="1700" xlink:href="#g3"/><use y="1717" xlink:href="#g4"/><rect class="foreground" height="17" width="8" x="32" y="1734"/><use y="1734" xlink:href="#g7"/></g><g><use y="2040" xlink:href="#g3"/><use y="2057" xlink:href="#g4"/><rect class="foreground" height="17" width="8" x="40" y="2074"/><use y="2074" xlink:href="#g8"/></g><g><use y="2380" xlink:href="#g3"/><use y="2397" xlink:href="#g4"/><rect class="foreground" height="17" width="8" x="48" y="2414"/><use y="2414" xlink:href="#g9"/></g><g><use y="2720" xlink:href="#g3"/><use y="2737" xlink:href="#g4"/><rect class="foreground" height="17" width="8" x="56" y="2754"/><use y="2754" xlink:href="#g10"/></g><g><use y="3060" xlink:href="#g3"/><use y="3077" xlink:href="#g4"/><rect class="foreground" height="17" width="8" x="64" y="3094"/><use y="3094" xlink:href="#g11"/></g><g><use y="3400" xlink:href="#g3"/><use y="3417" xlink:href="#g4"/><rect class="foreground" height="17" width="8" x="72" y="3434"/><use y="3434" xlink:href="#g12"/></g><g><use y="3740" xlink:href="#g3"/><use y="3757" xlink:href="#g4"/><rect class="foreground" height="17" width="8" x="80" y="3774"/><use y="3774" xlink:href="#g13"/></g><g><use y="4080" xlink:href="#g3"/><use y="4097" xlink:href="#g4"/><rect class="foreground" height="17" width="8" x="88" y="4114"/><use y="4114" xlink:href="#g14"/></g><g><use y="4420" xlink:href="#g3"/><use y="4437" xlink:href="#g4"/><rect class="foreground" height="17" width="8" x="96" y="4454"/><use y="4454" xlink:href="#g15"/></g><g><use y="4760" xlink:href="#g3"/><use y="4777" xlink:href="#g4"/><rect class="foreground" height="17" width="8" x="104" y="4794"/><use y="4794" xlink:href="#g16"/></g><g><use y="5100" xlink:href="#g3"/><use y="5117" xlink:href="#g4"/><rect class="foreground" height="17" width="8" x="104" y="5134"/><use y="5134" xlink:href="#g16"/></g><g><use y="5440" xlink:href="#g3"/><use y="5457" xlink:href="#g4"/><use y="5474" xlink:href="#g17"/><rect class="foreground" height="17" width="8" x="0" y="5491"/><use y="5491" xlink:href="#g1"/></g><g><use y="5780" xlink:href="#g3"/><use y="5797" xlink:href="#g4"/><use y="5814" xlink:href="#g17"/><rect class="foreground" height="17" width="8" x="0" y="5831"/><use y="5831" xlink:href="#g1"/></g><g><use y="6120" xlink:href="#g3"/><use y="6137" xlink:href="#g4"/><use y="6154" xlink:href="#g17"/><use y="6171" xlink:href="#g18"/><rect class="foreground" height="17" width="8" x="0" y="6188"/><use y="6188" xlink:href="#g1"/></g><g><use y="6460" xlink:href="#g3"/><use y="6477" xlink:href="#g4"/><use y="6494" xlink:href="#g17"/><use y="6511" xlink:href="#g18"/><use y="6528" xlink:href="#g19"/><use y="6545" xlink:href="#g20"/><use y="6562" xlink:href="#g21"/><use y="6579" xlink:href="#g22"/><use y="6596" xlink:href="#g23"/><use y="6613" xlink:href="#g24"/><use y="6630" xlink:href="#g25"/><rect class="foreground" height="17" width="8" x="0" y="6647"/><use y="6647" xlink:href="#g1"/></g><g><use y="6800" xlink:href="#g3"/><use y="6817" xlink:href="#g4"/><use y="6834" xlink:href="#g17"/><use y="6851" xlink:href="#g18"/><use y="6868" xlink:href="#g19"/><use y="6885" xlink:href="#g20"/><use y="6902" xlink:href="#g21"/><use y="6919" xlink:href="#g22"/><use y="6936" xlink:href="#g23"/><use y="6953" xlink:href="#g24"/><use y="6970" xlink:href="#g25"/><rect class="foreground" height="17" width="8" x="0" y="6987"/><use y="6987" xlink:href="#g2"/></g><g><use y="7140" xlink:href="#g3"/><use y="7157" xlink:href="#g4"/><use y="7174" xlink:href="#g17"/><use y="7191" xlink:href="#g18"/><use y="7208" xlink:href="#g19"/><use y="7225" xlink:href="#g20"/><use y="7242" xlink:href="#g21"/><use y="7259" xlink:href="#g22"/><use y="7276" xlink:href="#g23"/><use y="7293" xlink:href="#g24"/><use y="7310" xlink:href="#g25"/><rect class="foreground" height="17" width="8" x="0" y="7327"/><use y="7327" xlink:href="#g2"/></g><g><use y="7480" xlink:href="#g3"/><use y="7497" xlink:href="#g4"/><use y="7514" xlink:href="#g17"/><use y="7531" xlink:href="#g18"/><use y="7548" xlink:href="#g19"/><use y="7565" xlink:href="#g20"/><use y="7582" xlink:href="#g21"/><use y="7599" xlink:href="#g22"/><use y="7616" xlink:href="#g23"/><use y="7633" xlink:href="#g24"/><use y="7650" xlink:href="#g25"/><use y="7667" xlink:href="#g3"/><use y="7684" xlink:href="#g4"/><rect class="foreground" height="17" width="8" x="16" y="7701"/><use y="7701" xlink:href="#g5"/></g><g><use y="7820" xlink:href="#g3"/><use y="7837" xlink:href="#g4"/><use y="7854" xlink:href="#g17"/><use y="7871" xlink:href="#g18"/><use y="7888" xlink:href="#g19"/><use y="7905" xlink:href="#g20"/><use y="7922" xlink:href="#g21"/><use y="7939" xlink:href="#g22"/><use y="7956" xlink:href="#g23"/><use y="7973" xlink:href="#g24"/><use y="7990" xlink:href="#g25"/><use y="8007" xlink:href="#g3"/><use y="8024" xlink:href="#g4"/><rect class="foreground" height="17" width="8" x="16" y="8041"/><use y="8041" xlink:href="#g5"/></g><g><use y="8160" xlink:href="#g3"/><use y="8177" xlink:href="#g4"/><use y="8194" xlink:href="#g17"/><use y="8211" xlink:href="#g18"/><use y="8228" xlink:href="#g19"/><use y="8245" xlink:href="#g20"/><use y="8262" xlink:href="#g21"/><use y="8279" xlink:href="#g22"/><use y="8296" xlink:href="#g23"/><use y="8313" xlink:href="#g24"/><use y="8330" xlink:href="#g25"/><use y="8347" xlink:href="#g3"/><use y="8364" xlink:href="#g4"/><rect class="foreground" height="17" width="8" x="24" y="8381"/><use y="8381" xlink:href="#g6"/></g><g><use y="8500" xlink:href="#g3"/><use y="8517" xlink:href="#g4"/><use y="8534" xlink:href="#g17"/><use y="8551" xlink:href="#g18"/><use y="8568" xlink:href="#g19"/><use y="8585" xlink:href="#g20"/><use y="8602" xlink:href="#g21"/><use y="8619" xlink:href="#g22"/><use y="8636" xlink:href="#g23"/><use y="8653" xlink:href="#g24"/><use y="8670" xlink:href="#g25"/><use y="8687" xlink:href="#g3"/><use y="8704" xlink:href="#g4"/><rect class="foreground" height="17" width="8" x="32" y="8721"/><use y="8721" xlink:href="#g7"/></g><g><use y="8840" xlink:href="#g3"/><use y="8857" xlink:href="#g4"/><use y="8874" xlink:href="#g17"/><use y="8891" xlink:href="#g18"/><use y="8908" xlink:href="#g19"/><use y="8925" xlink:href="#g20"/><use y="8942" xlink:href="#g21"/><use y="8959" xlink:href="#g22"/><use y="8976" xlink:href="#g23"/><use y="8993" xlink:href="#g24"/><use y="9010" xlink:href="#g25"/><use y="9027" xlink:href="#g3"/><use y="9044" xlink:href="#g4"/><rect class="foreground" height="17" width="8" x="40" y="9061"/><use y="9061" xlink:href="#g8"/></g><g><use y="9180" xlink:href="#g3"/><use y="9197" xlink:href="#g4"/><use y="9214" xlink:href="#g17"/><use y="9231" xlink:href="#g18"/><use y="9248" xlink:href="#g19"/><use y="9265" xlink:href="#g20"/><use y="9282" xlink:href="#g21"/><use y="9299" xlink:href="#g22"/><use y="9316" xlink:href="#g23"/><use y="9333" xlink:href="#g24"/><use y="9350" xlink:href="#g25"/><use y="9367" xlink:href="#g3"/><use y="9384" xlink:href="#g4"/><rect class="foreground" height="17" width="8" x="48" y="9401"/><use y="9401" xlink:href="#g9"/></g><g><use y="9520" xlink:href="#g3"/><use y="9537" xlink:href="#g4"/><use y="9554" xlink:href="#g17"/><use y="9571" xlink:href="#g18"/><use y="9588" xlink:href="#g19"/><use y="9605" xlink:href="#g20"/><use y="9622" xlink:href="#g21"/><use y="9639" xlink:href="#g22"/><use y="9656" xlink:href="#g23"/><use y="9673" xlink:href="#g24"/><use y="9690" xlink:href="#g25"/><use y="9707" xlink:href="#g3"/><use y="9724" xlink:href="#g4"/><rect class="foreground" height="17" width="8" x="56" y="9741"/><use y="9741" xlink:href="#g10"/></g><g><use y="9860" xlink:href="#g3"/><use y="9877" xlink:href="#g4"/><use y="9894" xlink:href="#g17"/><use y="9911" xlink:href="#g18"/><use y="9928" xlink:href="#g19"/><use y="9945" xlink:href="#g20"/><use y="9962" xlink:href="#g21"/><use y="9979" xlink:href="#g22"/><use y="9996" xlink:href="#g23"/><use y="10013" xlink:href="#g24"/><use y="10030" xlink:href="#g25"/><use y="10047" xlink:href="#g3"/><use y="10064" xlink:href="#g4"/><rect class="foreground" height="17" width="8" x="64" y="10081"/><use y="10081" xlink:href="#g11"/></g><g><use y="10200" xlink:href="#g3"/><use y="10217" xlink:href="#g4"/><use y="10234" xlink:href="#g17"/><use y="10251" xlink:href="#g18"/><use y="10268" xlink:href="#g19"/><use y="10285" xlink:href="#g20"/><use y="10302" xlink:href="#g21"/><use y="10319" xlink:href="#g22"/><use y="10336" xlink:href="#g23"/><use y="10353" xlink:href="#g24"/><use y="10370" xlink:href="#g25"/><use y="10387" xlink:href="#g3"/><use y="10404" xlink:href="#g4"/><rect class="foreground" height="17" width="8" x="72" y="10421"/><use y="10421" xlink:href="#g12"/></g><g><use y="10540" xlink:href="#g3"/><use y="10557" xlink:href="#g4"/><use y="10574" xlink:href="#g17"/><use y="10591" xlink:href="#g18"/><use y="10608" xlink:href="#g19"/><use y="10625" xlink:href="#g20"/><use y="10642" xlink:href="#g21"/><use y="10659" xlink:href="#g22"/><use y="10676" xlink:href="#g23"/><use y="10693" xlink:href="#g24"/><use y="10710" xlink:href="#g25"/><use y="10727" xlink:href="#g3"/><use y="10744" xlink:href="#g4"/><rect class="foreground" height="17" width="8" x="80" y="10761"/><use y="10761" xlink:href="#g13"/></g><g><use y="10880" xlink:href="#g3"/><use y="10897" xlink:href="#g4"/><use y="10914" xlink:href="#g17"/><use y="10931" xlink:href="#g18"/><use y="10948" xlink:href="#g19"/><use y="10965" xlink:href="#g20"/><use y="10982" xlink:href="#g21"/><use y="10999" xlink:href="#g22"/><use y="11016" xlink:href="#g23"/><use y="11033" xlink:href="#g24"/><use y="11050" xlink:href="#g25"/><use y="11067" xlink:href="#g3"/><use y="11084" xlink:href="#g4"/><rect class="foreground" height="17" width="8" x="88" y="11101"/><use y="11101" xlink:href="#g14"/></g><g><use y="11220" xlink:href="#g3"/><use y="11237" xlink:href="#g4"/><use y="11254" xlink:href="#g17"/><use y="11271" xlink:href="#g18"/><use y="11288" xlink:href="#g19"/><use y="11305" xlink:href="#g20"/><use y="11322" xlink:href="#g21"/><use y="11339" xlink:href="#g22"/><use y="11356" xlink:href="#g23"/><use y="11373" xlink:href="#g24"/><use y="11390" xlink:href="#g25"/><use y="11407" xlink:href="#g3"/><use y="11424" xlink:href="#g4"/><rect class="foreground" height="17" width="8" x="96" y="11441"/><use y="11441" xlink:href="#g15"/></g><g><use y="11560" xlink:href="#g3"/><use y="11577" xlink:href="#g4"/><use y="11594" xlink:href="#g17"/><use y="11611" xlink:href="#g18"/><use y="11628" xlink:href="#g19"/><use y="11645" xlink:href="#g20"/><use y="11662" xlink:href="#g21"/><use y="11679" xlink:href="#g22"/><use y="11696" xlink:href="#g23"/><use y="11713" xlink:href="#g24"/><use y="11730" xlink:href="#g25"/><use y="11747" xlink:href="#g3"/><use y="11764" xlink:href="#g4"/><rect class="foreground" height="17" width="8" x="104" y="11781"/><use y="11781" xlink:href="#g26"/></g><g><use y="11900" xlink:href="#g3"/><use y="11917" xlink:href="#g4"/><use y="11934" xlink:href="#g17"/><use y="11951" xlink:href="#g18"/><use y="11968" xlink:href="#g19"/><use y="11985" xlink:href="#g20"/><use y="12002" xlink:href="#g21"/><use y="12019" xlink:href="#g22"/><use y="12036" xlink:href="#g23"/><use y="12053" xlink:href="#g24"/><use y="12070" xlink:href="#g25"/><use y="12087" xlink:href="#g3"/><use y="12104" xlink:href="#g4"/><rect class="foreground" height="17" width="8" x="112" y="12121"/><use y="12121" xlink:href="#g27"/></g><g><use y="12240" xlink:href="#g3"/><use y="12257" xlink:href="#g4"/><use y="12274" xlink:href="#g17"/><use y="12291" xlink:href="#g18"/><use y="12308" xlink:href="#g19"/><use y="12325" xlink:href="#g20"/><use y="12342" xlink:href="#g21"/><use y="12359" xlink:href="#g22"/><use y="12376" xlink:href="#g23"/><use y="12393" xlink:href="#g24"/><use y="12410" xlink:href="#g25"/><use y="12427" xlink:href="#g3"/><use y="12444" xlink:href="#g4"/><rect class="foreground" height="17" width="8" x="496" y="12461"/><use y="12461" xlink:href="#g28"/></g><g><use y="12580" xlink:href="#g3"/><use y="12597" xlink:href="#g4"/><use y="12614" xlink:href="#g17"/><use y="12631" xlink:href="#g18"/><use y="12648" xlink:href="#g19"/><use y="12665" xlink:href="#g20"/><use y="12682" xlink:href="#g21"/><use y="12699" xlink:href="#g22"/><use y="12716" xlink:href="#g23"/><use y="12733" xlink:href="#g24"/><use y="12750" xlink:href="#g25"/><use y="12767" xlink:href="#g3"/><use y="12784" xlink:href="#g4"/><rect class="foreground" height="17" width="8" x="496" y="12801"/><use y="12801" xlink:href="#g28"/></g><g><use y="12920" xlink:href="#g3"/><use y="12937" xlink:href="#g4"/><use y="12954" xlink:href="#g17"/><use y="12971" xlink:href="#g18"/><use y="12988" xlink:href="#g19"/><use y="13005" xlink:href="#g20"/><use y="13022" xlink:href="#g21"/><use y="13039" xlink:href="#g22"/><use y="13056" xlink:href="#g23"/><use y="13073" xlink:href="#g24"/><use y="13090" xlink:href="#g25"/><use y="13107" xlink:href="#g3"/><use y="13124" xlink:href="#g4"/><use y="13141" xlink:href="#g29"/><rect class="foreground" height="17" width="8" x="0" y="13158"/><use y="13158" xlink:href="#g1"/></g><g><use y="13260" xlink:href="#g3"/><use y="13277" xlink:href="#g4"/><use y="13294" xlink:href="#g17"/><use y="13311" xlink:href="#g18"/><use y="13328" xlink:href="#g19"/><use y="13345" xlink:href="#g20"/><use y="13362" xlink:href="#g21"/><use y="13379" xlink:href="#g22"/><use y="13396" xlink:href="#g23"/><use y="13413" xlink:href="#g24"/><use y="13430" xlink:href="#g25"/><use y="13447" xlink:href="#g3"/><use y="13464" xlink:href="#g4"/><use y="13481" xlink:href="#g29"/><rect class="foreground" height="17" width="8" x="0" y="13498"/><use y="13498" xlink:href="#g1"/></g><g><use y="13600" xlink:href="#g3"/><use y="13617" xlink:href="#g4"/><use y="13634" xlink:href="#g17"/><use y="13651" xlink:href="#g18"/><use y="13668" xlink:href="#g19"/><use y="13685" xlink:href="#g20"/><use y="13702" xlink:href="#g21"/><use y="13719" xlink:href="#g22"/><use y="13736" xlink:href="#g23"/><use y="13753" xlink:href="#g24"/><use y="13770" xlink:href="#g25"/><use y="13787" xlink:href="#g3"/><use y="13804" xlink:href="#g4"/><use y="13821" xlink:href="#g29"/><use y="13838" xlink:href="#g30"/><rect class="foreground" height="17" width="8" x="0" y="13855"/><use y="13855" xlink:href="#g1"/></g><g><use y="13940" xlink:href="#g3"/><use y="13957" xlink:href="#g4"/><use y="13974" xlink:href="#g17"/><use y="13991" xlink:href="#g18"/><use y="14008" xlink:href="#g19"/><use y="14025" xlink:href="#g20"/><use y="14042" xlink:href="#g21"/><use y="14059" xlink:href="#g22"/><use y="14076" xlink:href="#g23"/><use y="14093" xlink:href="#g24"/><use y="14110" xlink:href="#g25"/><use y="14127" xlink:href="#g3"/><use y="14144" xlink:href="#g4"/><use y="14161" xlink:href="#g29"/><use y="14178" xlink:href="#g30"/><use y="14195" xlink:href="#g31"/><use y="14212" xlink:href="#g32"/><rect class="foreground" height="17" width="8" x="0" y="14229"/><use y="14229" xlink:href="#g1"/></g><g><use y="14280" xlink:href="#g20"/><use y="14297" xlink:href="#g21"/><use y="14314" xlink:href="#g22"/><use y="14331" xlink:href="#g23"/><use y="14348" xlink:href="#g24"/><use y="14365" xlink:href="#g25"/><use y="14382" xlink:href="#g3"/><use y="14399" xlink:href="#g4"/><use y="14416" xlink:href="#g29"/><use y="14433" xlink:href="#g30"/><use y="14450" xlink:href="#g31"/><use y="14467" xlink:href="#g32"/><use y="14484" xlink:href="#g33"/><use y="14501" xlink:href="#g34"/><use y="14518" xlink:href="#g35"/><use y="14535" xlink:href="#g36"/><use y="14552" xlink:href="#g37"/><use y="14569" xlink:href="#g38"/><rect class="foreground" height="17" width="8" x="0" y="14586"/><use y="14586" xlink:href="#g1"/></g><g><use y="14620" xlink:href="#g21"/><use y="14637" xlink:href="#g22"/><use y="14654" xlink:href="#g23"/><use y="14671" xlink:href="#g24"/><use y="14688" xlink:href="#g25"/><use y="14705" xlink:href="#g3"/><use y="14722" xlink:href="#g4"/><use y="14739" xlink:href="#g29"/><use y="14756" xlink:href="#g30"/><use y="14773" xlink:href="#g31"/><use y="14790" xlink:href="#g32"/><use y="14807" xlink:href="#g33"/><use y="14824" xlink:href="#g34"/><use y="14841" xlink:href="#g35"/><use y="14858" xlink:href="#g36"/><use y="14875" xlink:href="#g37"/><use y="14892" xlink:href="#g38"/><use y="14909" xlink:href="#g39"/><rect class="foreground" height="17" width="8" x="0" y="14926"/><use y="14926" xlink:href="#g1"/></g><g><use y="14960" xlink:href="#g21"/><use y="14977" xlink:href="#g22"/><use y="14994" xlink:href="#g23"/><use y="15011" xlink:href="#g24"/><use y="15028" xlink:href="#g25"/><use y="15045" xlink:href="#g3"/><use y="15062" xlink:href="#g4"/><use y="15079" xlink:href="#g29"/><use y="15096" xlink:href="#g30"/><use y="15113" xlink:href="#g31"/><use y="15130" xlink:href="#g32"/><use y="15147" xlink:href="#g33"/><use y="15164" xlink:href="#g34"/><use y="15181" xlink:href="#g35"/><use y="15198" xlink:href="#g36"/><use y="15215" xlink:href="#g37"/><use y="15232" xlink:href="#g38"/><use y="15249" xlink:href="#g39"/><rect class="foreground" height="17" width="8" x="224" y="15266"/><use y="15266" xlink:href="#g40"/></g><g><use y="15300" xlink:href="#g21"/><use y="15317" xlink:href="#g22"/><use y="15334" xlink:href="#g23"/><use y="15351" xlink:href="#g24"/><use y="15368" xlink:href="#g25"/><use y="15385" xlink:href="#g3"/><use y="15402" xlink:href="#g4"/><use y="15419" xlink:href="#g29"/><use y="15436" xlink:href="#g30"/><use y="15453" xlink:href="#g31"/><use y="15470" xlink:href="#g32"/><use y="15487" xlink:href="#g33"/><use y="15504" xlink:href="#g34"/><use y="15521" xlink:href="#g35"/><use y="15538" xlink:href="#g36"/><use y="15555" xlink:href="#g37"/><use y="15572" xlink:href="#g38"/><use y="15589" xlink:href="#g39"/><rect class="foreground" height="17" width="8" x="224" y="15606"/><use y="15606" xlink:href="#g41"/></g><g><use y="15640" xlink:href="#g21"/><use y="15657" xlink:href="#g22"/><use y="15674" xlink:href="#g23"/><use y="15691" xlink:href="#g24"/><use y="15708" xlink:href="#g25"/><use y="15725" xlink:href="#g3"/><use y="15742" xlink:href="#g4"/><use y="15759" xlink:href="#g29"/><use y="15776" xlink:href="#g30"/><use y="15793" xlink:href="#g31"/><use y="15810" xlink:href="#g32"/><use y="15827" xlink:href="#g33"/><use y="15844" xlink:href="#g34"/><use y="15861" xlink:href="#g35"/><use y="15878" xlink:href="#g36"/><use y="15895" xlink:href="#g37"/><use y="15912" xlink:href="#g38"/><use y="15929" xlink:href="#g39"/><rect class="foreground" height="17" width="8" x="224" y="15946"/><use y="15946" xlink:href="#g42"/></g><g><use y="15980" xlink:href="#g21"/><use y="15997" xlink:href="#g22"/><use y="16014" xlink:href="#g23"/><use y="16031" xlink:href="#g24"/><use y="16048" xlink:href="#g25"/><use y="16065" xlink:href="#g3"/><use y="16082" xlink:href="#g4"/><use y="16099" xlink:href="#g29"/><use y="16116" xlink:href="#g30"/><use y="16133" xlink:href="#g31"/><use y="16150" xlink:href="#g32"/><use y="16167" xlink:href="#g33"/><use y="16184" xlink:href="#g34"/><use y="16201" xlink:href="#g35"/><use y="16218" xlink:href="#g36"/><use y="16235" xlink:href="#g37"/><use y="16252" xlink:href="#g38"/><use y="16269" xlink:href="#g39"/><rect class="foreground" height="17" width="8" x="224" y="16286"/><use y="16286" xlink:href="#g43"/></g><g><use y="16320" xlink:href="#g21"/><use y="16337" xlink:href="#g22"/><use y="16354" xlink:href="#g23"/><use y="16371" xlink:href="#g24"/><use y="16388" xlink:href="#g25"/><use y="16405" xlink:href="#g3"/><use y="16422" xlink:href="#g4"/><use y="16439" xlink:href="#g29"/><use y="16456" xlink:href="#g30"/><use y="16473" xlink:href="#g31"/><use y="16490" xlink:href="#g32"/><use y="16507" xlink:href="#g33"/><use y="16524" xlink:href="#g34"/><use y="16541" xlink:href="#g35"/><use y="16558" xlink:href="#g36"/><use y="16575" xlink:href="#g37"/><use y="16592" xlink:href="#g38"/><use y="16609" xlink:href="#g39"/><rect class="foreground" height="17" width="8" x="208" y="16626"/><use y="16626" xlink:href="#g44"/></g><g><use y="16660" xlink:href="#g23"/><use y="16677" xlink:href="#g24"/><use y="16694" xlink:href="#g25"/><use y="16711" xlink:href="#g3"/><use y="16728" xlink:href="#g4"/><use y="16745" xlink:href="#g29"/><use y="16762" xlink:href="#g30"/><use y="16779" xlink:href="#g31"/><use y="16796" xlink:href="#g32"/><use y="16813" xlink:href="#g33"/><use y="16830" xlink:href="#g34"/><use y="16847" xlink:href="#g35"/><use y="16864" xlink:href="#g36"/><use y="16881" xlink:href="#g37"/><use y="16898" xlink:href="#g38"/><use y="16915" xlink:href="#g39"/><use y="16932" xlink:href="#g45"/><use y="16949" xlink:href="#g46"/><rect class="foreground" height="17" width="8" x="0" y="16966"/><use y="16966" xlink:href="#g1"/></g><g><use y="17000" xlink:href="#g23"/><use y="17017" xlink:href="#g24"/><use y="17034" xlink:href="#g25"/><use y="17051" xlink:href="#g3"/><use y="17068" xlink:href="#g4"/><use y="17085" xlink:href="#g29"/><use y="17102" xlink:href="#g30"/><use y="17119" xlink:href="#g31"/><use y="17136" xlink:href="#g32"/><use y="17153" xlink:href="#g33"/><use y="17170" xlink:href="#g34"/><use y="17187" xlink:href="#g35"/><use y="17204" xlink:href="#g36"/><use y="17221" xlink:href="#g37"/><use y="17238" xlink:href="#g38"/><use y="17255" xlink:href="#g39"/><use y="17272" xlink:href="#g45"/><use y="17289" xlink:href="#g46"/><rect class="foreground" height="17" width="8" x="0" y="17306"/><use y="17306" xlink:href="#g2"/></g><g><use y="17340" xlink:href="#g23"/><use y="17357" xlink:href="#g24"/><use y="17374" xlink:href="#g25"/><use y="17391" xlink:href="#g3"/><use y="17408" xlink:href="#g4"/><use y="17425" xlink:href="#g29"/><use y="17442" xlink:href="#g30"/><use y="17459" xlink:href="#g31"/><use y="17476" xlink:href="#g32"/><use y="17493" xlink:href="#g33"/><use y="17510" xlink:href="#g34"/><use y="17527" xlink:href="#g35"/><use y="17544" xlink:href="#g36"/><use y="17561" xlink:href="#g37"/><use y="17578" xlink:href="#g38"/><use y="17595" xlink:href="#g39"/><use y="17612" xlink:href="#g45"/><use y="17629" xlink:href="#g46"/><rect class="foreground" height="17" width="8" x="0" y="17646"/><use y="17646" xlink:href="#g2"/></g><g><use y="17680" xlink:href="#g25"/><use y="17697" xlink:href="#g3"/><use y="17714" xlink:href="#g4"/><use y="17731" xlink:href="#g29"/><use y="17748" xlink:href="#g30"/><use y="17765" xlink:href="#g31"/><use y="17782" xlink:href="#g32"/><use y="17799" xlink:href="#g33"/><use y="17816" xlink:href="#g34"/><use y="17833" xlink:href="#g35"/><use y="17850" xlink:href="#g36"/><use y="17867" xlink:href="#g37"/><use y="17884" xlink:href="#g38"/><use y="17901" xlink:href="#g39"/><use y="17918" xlink:href="#g45"/><use y="17935" xlink:href="#g46"/><use y="17952" xlink:href="#g3"/><use y="17969" xlink:href="#g4"/><rect class="foreground" height="17" width="8" x="16" y="17986"/><use y="17986" xlink:href="#g5"/></g><g><use y="18020" xlink:href="#g25"/><use y="18037" xlink:href="#g3"/><use y="18054" xlink:href="#g4"/><use y="18071" xlink:href="#g29"/><use y="18088" xlink:href="#g30"/><use y="18105" xlink:href="#g31"/><use y="18122" xlink:href="#g32"/><use y="18139" xlink:href="#g33"/><use y="18156" xlink:href="#g34"/><use y="18173" xlink:href="#g35"/><use y="18190" xlink:href="#g36"/><use y="18207" xlink:href="#g37"/><use y="18224" xlink:href="#g38"/><use y="18241" xlink:href="#g39"/><use y="18258" xlink:href="#g45"/><use y="18275" xlink:href="#g46"/><use y="18292" xlink:href="#g3"/><use y="18309" xlink:href="#g4"/><rect class="foreground" height="17" width="8" x="16" y="18326"/><use y="18326" xlink:href="#g5"/></g><g><use y="18360" xlink:href="#g25"/><use y="18377" xlink:href="#g3"/><use y="18394" xlink:href="#g4"/><use y="18411" xlink:href="#g29"/><use y="18428" xlink:href="#g30"/><use y="18445" xlink:href="#g31"/><use y="18462" xlink:href="#g32"/><use y="18479" xlink:href="#g33"/><use y="18496" xlink:href="#g34"/><use y="18513" xlink:href="#g35"/><use y="18530" xlink:href="#g36"/><use y="18547" xlink:href="#g37"/><use y="18564" xlink:href="#g38"/><use y="18581" xlink:href="#g39"/><use y="18598" xlink:href="#g45"/><use y="18615" xlink:href="#g46"/><use y="18632" xlink:href="#g3"/><use y="18649" xlink:href="#g4"/><rect class="foreground" height="17" width="8" x="24" y="18666"/><use y="18666" xlink:href="#g47"/></g><g><use y="18700" xlink:href="#g25"/><use y="18717" xlink:href="#g3"/><use y="18734" xlink:href="#g4"/><use y="18751" xlink:href="#g29"/><use y="18768" xlink:href="#g30"/><use y="18785" xlink:href="#g31"/><use y="18802" xlink:href="#g32"/><use y="18819" xlink:href="#g33"/><use y="18836" xlink:href="#g34"/><use y="18853" xlink:href="#g35"/><use y="18870" xlink:href="#g36"/><use y="18887" xlink:href="#g37"/><use y="18904" xlink:href="#g38"/><use y="18921" xlink:href="#g39"/><use y="18938" xlink:href="#g45"/><use y="18955" xlink:href="#g46"/><use y="18972" xlink:href="#g3"/><use y="18989" xlink:href="#g4"/><rect class="foreground" height="17" width="8" x="32" y="19006"/><use y="19006" xlink:href="#g48"/></g><g><use y="19040" xlink:href="#g25"/><use y="19057" xlink:href="#g3"/><use y="19074" xlink:href="#g4"/><use y="19091" xlink:href="#g29"/><use y="19108" xlink:href="#g30"/><use y="19125" xlink:href="#g31"/><use y="19142" xlink:href="#g32"/><use y="19159" xlink:href="#g33"/><use y="19176" xlink:href="#g34"/><use y="19193" xlink:href="#g35"/><use y="19210" xlink:href="#g36"/><use y="19227" xlink:href="#g37"/><use y="19244" xlink:href="#g38"/><use y="19261" xlink:href="#g39"/><use y="19278" xlink:href="#g45"/><use y="19295" xlink:href="#g46"/><use y="19312" xlink:href="#g3"/><use y="19329" xlink:href="#g4"/><rect class="foreground" height="17" width="8" x="32" y="19346"/><use y="19346" xlink:href="#g48"/></g><g><use y="19380" xlink:href="#g3"/><use y="19397" xlink:href="#g4"/><use y="19414" xlink:href="#g29"/><use y="19431" xlink:href="#g30"/><use y="19448" xlink:href="#g31"/><use y="19465" xlink:href="#g32"/><use y="19482" xlink:href="#g33"/><use y="19499" xlink:href="#g34"/><use y="19516" xlink:href="#g35"/><use y="19533" xlink:href="#g36"/><use y="19550" xlink:href="#g37"/><use y="19567" xlink:href="#g38"/><use y="19584" xlink:href="#g39"/><use y="19601" xlink:href="#g45"/><use y="19618" xlink:href="#g46"/><use y="19635" xlink:href="#g3"/><use y="19652" xlink:href="#g4"/><use y="19669" xlink:href="#g49"/><rect class="foreground" height="17" width="8" x="0" y="19686"/><use y="19686" xlink:href="#g1"/></g><g><use y="19720" xlink:href="#g4"/><use y="19737" xlink:href="#g29"/><use y="19754" xlink:href="#g30"/><use y="19771" xlink:href="#g31"/><use y="19788" xlink:href="#g32"/><use y="19805" xlink:href="#g33"/><use y="19822" xlink:href="#g34"/><use y="19839" xlink:href="#g35"/><use y="19856" xlink:href="#g36"/><use y="19873" xlink:href="#g37"/><use y="19890" xlink:href="#g38"/><use y="19907" xlink:href="#g39"/><use y="19924" xlink:href="#g45"/><use y="19941" xlink:href="#g46"/><use y="19958" xlink:href="#g3"/><use y="19975" xlink:href="#g4"/><use y="19992" xlink:href="#g49"/><use y="20009" xlink:href="#g50"/><rect class="foreground" height="17" width="8" x="0" y="20026"/><use y="20026" xlink:href="#g2"/></g><g><use y="20060" xlink:href="#g30"/><use y="20077" xlink:href="#g31"/><use y="20094" xlink:href="#g32"/><use y="20111" xlink:href="#g33"/><use y="20128" xlink:href="#g34"/><use y="20145" xlink:href="#g35"/><use y="20162" xlink:href="#g36"/><use y="20179" xlink:href="#g37"/><use y="20196" xlink:href="#g38"/><use y="20213" xlink:href="#g39"/><use y="20230" xlink:href="#g45"/><use y="20247" xlink:href="#g46"/><use y="20264" xlink:href="#g3"/><use y="20281" xlink:href="#g4"/><use y="20298" xlink:href="#g49"/><use y="20315" xlink:href="#g50"/><use y="20332" xlink:href="#g3"/><use y="20349" xlink:href="#g4"/><rect class="foreground" height="17" width="8" x="16" y="20366"/><use y="20366" xlink:href="#g5"/></g><g><use y="20400" xlink:href="#g30"/><use y="20417" xlink:href="#g31"/><use y="20434" xlink:href="#g32"/><use y="20451" xlink:href="#g33"/><use y="20468" xlink:href="#g34"/><use y="20485" xlink:href="#g35"/><use y="20502" xlink:href="#g36"/><use y="20519" xlink:href="#g37"/><use y="20536" xlink:href="#g38"/><use y="20553" xlink:href="#g39"/><use y="20570" xlink:href="#g45"/><use y="20587" xlink:href="#g46"/><use y="20604" xlink:href="#g3"/><use y="20621" xlink:href="#g4"/><use y="20638" xlink:href="#g49"/><use y="20655" xlink:href="#g50"/><use y="20672" xlink:href="#g3"/><use y="20689" xlink:href="#g4"/><rect class="foreground" height="17" width="8" x="16" y="20706"/><use y="20706" xlink:href="#g5"/></g><g><use y="20740" xlink:href="#g31"/><use y="20757" xlink:href="#g32"/><use y="20774" xlink:href="#g33"/><use y="20791" xlink:href="#g34"/><use y="20808" xlink:href="#g35"/><use y="20825" xlink:href="#g36"/><use y="20842" xlink:href="#g37"/><use y="20859" xlink:href="#g38"/><use y="20876" xlink:href="#g39"/><use y="20893" xlink:href="#g45"/><use y="20910" xlink:href="#g46"/><use y="20927" xlink:href="#g3"/><use y="20944" xlink:href="#g4"/><use y="20961" xlink:href="#g49"/><use y="20978" xlink:href="#g50"/><use y="20995" xlink:href="#g3"/><use y="21012" xlink:href="#g4"/><use y="21029" xlink:href="#g51"/><rect class="foreground" height="17" width="8" x="0" y="21046"/><use y="21046" xlink:href="#g1"/></g></g></svg>
</svg>